<?xml version="1.0" standalone="no"?>
<!DOCTYPE svg PUBLIC "-//W3C//DTD SVG 20010904//EN"
 "http://www.w3.org/TR/2001/REC-SVG-20010904/DTD/svg10.dtd">
<svg version="1.0" xmlns="http://www.w3.org/2000/svg" aria-hidden="true"
 width="1280.000000pt" height="934.000000pt" viewBox="0 0 1280.000000 934.000000"
 preserveAspectRatio="xMidYMid meet">
<metadata>
Created by potrace 1.15, written by Peter Selinger 2001-2017
</metadata>
<g transform="translate(0.000000,934.000000) scale(0.100000,-0.100000)"
fill="#000000" stroke="none">
<path d="M5341 8537 c-73 -23 -132 -95 -247 -299 -59 -106 -164 -292 -232
-413 -69 -121 -154 -272 -190 -335 -35 -63 -99 -176 -142 -250 -233 -406 -393
-696 -406 -733 -12 -36 -14 -456 -12 -2982 l3 -2940 30 -59 c16 -32 49 -75 73
-96 86 -76 -107 -70 2261 -70 2002 0 2129 1 2175 17 71 26 147 103 177 178
l24 60 0 2930 0 2930 -22 47 c-11 25 -102 189 -201 365 -99 175 -278 494 -400
708 -527 935 -501 894 -609 935 -53 20 -74 20 -1151 19 -752 -1 -1108 -4
-1131 -12z m1268 -1166 c125 -39 209 -112 264 -229 30 -62 32 -75 32 -172 0
-97 -2 -110 -32 -172 -55 -117 -139 -190 -264 -229 -283 -88 -577 168 -530
462 41 250 295 413 530 340z"/>
</g>
</svg>
