<?xml version="1.0" encoding="iso-8859-1"?>
<!-- Uploaded to: SVG Repo, www.svgrepo.com, Generator: SVG Repo Mixer Tools -->
<svg height="800px" width="800px" version="1.1" id="Layer_1" xmlns="http://www.w3.org/2000/svg" xmlns:xlink="http://www.w3.org/1999/xlink" 
	 viewBox="0 0 473.658 473.658" xml:space="preserve">
<circle style="fill:#65A844;" cx="236.829" cy="236.829" r="236.829"/>
<g>
	<path style="fill:#FFFFFF;" d="M167.59,361.511c0,6.499-5.273,11.765-11.772,11.765h-46.416c-6.499,0-11.765-5.265-11.765-11.765
		v-79.855c0-6.499,5.265-11.765,11.765-11.765h46.416c6.499,0,11.772,5.265,11.772,11.765L167.59,361.511L167.59,361.511z"/>
	<path style="fill:#FFFFFF;" d="M264.82,361.511c0,6.499-5.273,11.765-11.772,11.765h-46.416c-6.499,0-11.765-5.265-11.765-11.765
		V223.692c0-6.499,5.265-11.765,11.765-11.765h46.416c6.499,0,11.772,5.265,11.772,11.765V361.511z"/>
	<path style="fill:#FFFFFF;" d="M404.146,167.972c1.084-2.18,1.058-4.835-0.845-7.143c-0.232-0.322-0.494-0.617-0.785-0.89
		c-22.034-22.034-44.067-44.064-66.105-66.097c-2.711-2.711-7.225-2.636-9.914,0.052c-22.127,22.131-44.251,44.262-66.378,66.393
		c-4.282,4.286-1.133,11.944,4.933,11.944c9.846,0,19.689,0,29.528,0v189.28c0,6.499,5.265,11.765,11.765,11.765h46.416
		c6.499,0,11.772-5.265,11.772-11.765v-189.28c11.039,0,22.079,0,33.114,0c0.307-0.004,0.602-0.026,0.898-0.075
		C401.439,171.898,403.312,170.163,404.146,167.972z"/>
</g>
</svg>